<?xml version="1.0" encoding="UTF-8"?>
<svg id="Modo_de_aislamiento" xmlns="http://www.w3.org/2000/svg" version="1.1" viewBox="0 0 56.07 85.24">
  <!-- Generator: Adobe Illustrator 30.5.1, SVG Export Plug-In . SVG Version: 2.1.4 Build 3)  -->
  <defs>
    <style>
      .st0 {
        fill: #2faa52;
      }
    </style>
  </defs>
  <path class="st0" d="M0,7.22c0-1.24.33-2.48.98-3.61C2.28,1.35,4.62,0,7.23,0h41.6c2.61,0,4.95,1.35,6.25,3.61,1.31,2.26,1.31,4.96,0,7.22l-20.8,36.03c-1.31,2.26-3.64,3.61-6.26,3.61s-4.95-1.35-6.25-3.61L.98,10.83c-.65-1.13-.98-2.37-.98-3.61ZM50.7,7.23c0-.43-.16-.77-.26-.94-.16-.28-.64-.93-1.61-.93H7.23c-.97,0-1.45.65-1.61.93-.16.28-.48,1.02,0,1.86l20.8,36.03c.48.84,1.29.93,1.61.93s1.13-.09,1.61-.93h0L50.45,8.15c.19-.33.26-.64.26-.92Z"/>
  <path class="st0" d="M0,41.99c0-1.24.33-2.48.98-3.61,1.31-2.26,3.64-3.61,6.26-3.61h12.21c1.48,0,2.68,1.2,2.68,2.68s-1.2,2.68-2.68,2.68H7.23c-.97,0-1.45.65-1.61.93-.16.28-.48,1.02,0,1.86l20.8,36.03c.48.84,1.29.93,1.61.93s1.13-.09,1.61-.93l20.8-36.03c.48-.84.16-1.58,0-1.86-.16-.28-.64-.93-1.61-.93h-12.21c-1.48,0-2.68-1.2-2.68-2.68s1.2-2.68,2.68-2.68h12.21c2.61,0,4.95,1.35,6.25,3.61,1.31,2.26,1.31,4.96,0,7.22l-20.8,36.03c-1.31,2.26-3.64,3.61-6.26,3.61s-4.95-1.35-6.25-3.61L.98,45.6c-.65-1.13-.98-2.37-.98-3.61Z"/>
</svg>